<?xml version="1.0" encoding="UTF-8"?>
<svg xmlns="http://www.w3.org/2000/svg" version="1.1" viewBox="0 0 244 32">
  <defs>
    <style>
      .cls-1 {
        fill: #144da0;
      }

      .cls-2 {
        fill: #c80e47;
      }

      .cls-3 {
        fill: #fff;
        opacity: 0;
      }

      .cls-4 {
        fill: #727171;
      }

      .cls-5 {
        fill: #e14567;
      }
    </style>
  </defs>
  <!-- Generator: Adobe Illustrator 28.7.0, SVG Export Plug-In . SVG Version: 1.2.0 Build 136)  -->
  <g>
    <g id="_레이어_1" data-name="레이어_1">
      <g>
        <g>
          <g>
            <path class="cls-1" d="M6.41,31c-.79,0-1.54-.08-2.26-.23-.73-.15-1.34-.44-1.85-.86-.51-.42-.88-1-1.11-1.75-.23-.75-.25-1.72-.04-2.93L4.31,7.98c.89,0,1.7.14,2.42.41.72.28,1.33.67,1.8,1.18.48.51.81,1.12,1,1.81.19.7.2,1.45.03,2.27l-3.16,17.34Z"/>
            <path class="cls-1" d="M18.03,31c-.78,0-1.54-.08-2.26-.23-.72-.15-1.34-.44-1.85-.86-.51-.42-.88-1-1.11-1.75-.23-.75-.25-1.72-.03-2.93l3.15-17.25c.9,0,1.7.14,2.42.41.72.28,1.32.67,1.8,1.18.48.51.81,1.12,1,1.81.19.7.2,1.45.03,2.27l-3.16,17.34Z"/>
            <path class="cls-1" d="M72.05,16.57c-.32,1.7-.8,3.1-1.43,4.22-.64,1.11-1.45,2.01-2.45,2.67-1,.67-2.19,1.14-3.57,1.41-1.38.28-2.97.41-4.78.41h-3.6c-1.17,0-2.41-.08-3.73-.25-.17.86-.44,1.66-.8,2.4-.36.74-.84,1.37-1.45,1.89-.61.52-1.35.93-2.25,1.23-.89.3-1.96.45-3.22.45l2.61-14.43c.3-1.59.75-2.94,1.37-4.03.62-1.1,1.42-1.98,2.41-2.65.99-.68,2.18-1.16,3.58-1.46,1.4-.3,3.05-.45,4.94-.45h3.31c1.74,0,3.26.13,4.54.4,1.28.27,2.31.72,3.08,1.37.77.64,1.28,1.52,1.53,2.62.26,1.11.22,2.51-.09,4.2M53.88,17.62c.02.43.14.8.37,1.11.22.31.5.55.82.74.33.18.7.32,1.12.41.41.09.81.14,1.19.14h3.47c.41,0,.83-.05,1.28-.14.45-.09.87-.23,1.27-.41.41-.18.77-.43,1.08-.74.32-.31.56-.68.74-1.11.25-.63.38-1.29.38-1.96,0-.43-.11-.8-.34-1.11-.22-.31-.51-.55-.85-.74-.34-.18-.72-.32-1.13-.41-.41-.09-.82-.14-1.22-.14h-3.47c-.38,0-.8.05-1.24.14-.44.09-.87.23-1.26.41-.39.18-.76.43-1.08.74-.33.31-.58.68-.75,1.11-.13.29-.22.62-.28.98-.07.37-.1.7-.1.98"/>
            <path class="cls-2" d="M26.22,10.6l-.32-.02.56-2.32c-.39-.01-.73-.03-1.01-.04l-1.01,4.21c3.96.27,19.16.48,23.31-5.33-4.56,3.12-12.96,3.61-17.81,3.61-2.08,0-3.5-.09-3.7-.1"/>
            <path class="cls-5" d="M50.51,1c-.39.62-.93,1.16-1.59,1.65-.16.12-.33.24-.5.35-5.81,3.72-18.83,3.33-20.74,3.25l-.45,1.87-.44,1.81c5.89.35,17.33-.12,21.81-4.2.15-.14.3-.28.44-.43,1.11-1.2,1.6-2.65,1.46-4.29"/>
            <path class="cls-1" d="M38.24,13.39l-3.07,17.61h-6.31l3.16-17.07c1.96-.08,4.1-.24,6.22-.55h0Z"/>
          </g>
          <g>
            <path class="cls-4" d="M90.13,13.25v.23c0,2.28,1.34,4.42,4.12,5.07l-.56,1c-.3.54-.98.48-1.36.35-1.26-.44-2.94-1.56-3.48-3.01-.64,1.62-2.5,2.95-3.66,3.32-.44.13-1.06.21-1.42-.46l-.54-1c2.52-.6,4.14-2.62,4.14-5.27v-.23h-3.4v-1.56h9.61v1.56h-3.44ZM94.94,21.14c.94-.39.92-1.18.92-2.01v-2.76h-3.34v-1.56h3.34v-3.7h2.62v8.1c0,1.43-.78,2.33-1.8,2.76.9.66,1.48,1.62,1.48,2.8,0,1.93-1.7,3.86-5.04,3.88-2.66.02-5.06-1.31-5.02-3.88.04-2.66,2.56-3.86,5.04-3.86.62,0,1.24.08,1.8.23ZM90.71,24.77c0,1.2.82,2.29,2.4,2.29s2.42-1,2.42-2.29c0-1.5-1.04-2.28-2.4-2.28-1.56,0-2.42,1.06-2.42,2.28Z"/>
            <path class="cls-4" d="M111.21,19.79v2.87h7.01v1.56h-16.24v-1.56h6.57v-2.87h-2.44c-1.48,0-2.12-.75-2.12-1.87v-6.23h2.64v2.49h6.55v-2.49h2.62v6.63c0,1.08-.24,1.47-1.44,1.47h-3.14ZM106.63,15.74v1.85c0,.42.2.64.7.64h5.85v-2.49h-6.55Z"/>
            <path class="cls-4" d="M133.81,17.94h-4.42v1.45h6.85v1.52h-16.26v-1.52h6.75v-1.45h-2.8c-1.14,0-1.92-.79-1.92-1.87v-4.74h11.61v1.52h-8.97v.93h8.97v1.52h-8.97v.35c0,.5.24.77.86.77h8.31v1.52ZM133.09,25.15c0,2.31-2.22,3.47-4.88,3.47s-4.88-1.16-4.88-3.47,2.24-3.49,4.88-3.49,4.88,1.18,4.88,3.49ZM125.95,25.15c0,1.16.88,1.95,2.26,1.95s2.26-.79,2.26-1.95-.82-1.93-2.26-1.93-2.26.77-2.26,1.93Z"/>
            <path class="cls-4" d="M144.08,11.79v1.87c0,2.28,1.42,4.65,4.18,5.3l-.6,1c-.38.67-1.06.41-1.42.29-1.18-.41-2.82-1.76-3.42-3.12-.52,1.41-2.5,3.09-3.64,3.43-.44.14-1.08.31-1.44-.37l-.54-.96c2.48-.75,4.16-2.91,4.16-5.57v-1.87h2.72ZM143.36,25.93c0,.37.2.54.56.54h8.79v1.58h-9.85c-1.12,0-2.14-.48-2.14-2.06v-3.72h2.64v3.66ZM152.53,11.11v10.92c0,.64-.32,1.18-1.16,1.18h-1.86c.2-.14.36-.35.36-.77v-11.32h2.66Z"/>
            <path class="cls-4" d="M162.44,14.01c0-.21-.06-.48-.52-.48h-5.3v-1.54h6.45c1.58,0,1.96.77,1.96,1.77v.98c0,2.22-.74,3.99-2.04,5.46-1.22,1.35-2.72,2.35-4.76,3.09-.6.21-.94.04-1.18-.46l-.44-.89c2.16-.89,3.54-1.85,4.5-3.09,1.18-1.5,1.4-3.26,1.34-4.84ZM170.55,24.94c0,.64-.34,1.18-1.18,1.18h-1.84c.22-.13.36-.35.36-.77v-14.02h2.66v13.62Z"/>
            <path class="cls-4" d="M182.96,14.47c.34.44.54.96.54,1.6,0,1.56-1.22,2.51-2.72,2.87v.96h2.46c1.4,0,2.32-.23,2.88-.62v-8.16h2.62v9.89c0,.64-.32,1.37-1.16,1.37h-1.82c.22-.13.36-.54.36-.96v-.58c-.78.44-1.82.62-2.8.62h-9.55v-1.56h4.42v-.93c-1.56-.33-2.9-1.29-2.9-2.91,0-.64.2-1.16.54-1.6h-1.76v-1.6h4.16v-2.33h2.66v.79c0,.75-.26,1.29-.94,1.54h4.9v1.6h-1.9ZM188.59,27.08c0,.64-.34,1.18-1.18,1.18h-1.82c.22-.13.36-.35.36-.77v-2.97h-9.59v-1.56h11.11c.8,0,1.12.31,1.12,1.04v3.09ZM179.38,17.59c1,0,1.58-.6,1.58-1.52,0-1-.58-1.56-1.56-1.56s-1.56.56-1.56,1.52.6,1.56,1.54,1.56Z"/>
            <path class="cls-4" d="M202.22,19.41c-.56.25-1.32.41-2.2.41h-8.35v-1.54h2.24c-.46-.12-.7-.41-.7-1v-4.01h-1.54v-1.56h10.15v1.56h-1.7v3.84c0,.73-.18.98-.66,1.18h.64c.64,0,1.42-.14,2.12-.42v1.56ZM197.62,13.25h-1.9v4.15c0,.5.1.87.6.87h.7c.48,0,.6-.35.6-.79v-4.22ZM203.04,21.14c.94-.39.92-1.18.92-2.01v-1.62c-.32.1-.74.15-1.06.15h-1.36v-1.54h1.76c.24,0,.48-.02.66-.1v-.87c-.2-.06-.46-.1-.7-.1h-1.74v-1.54h1.4c.28,0,.72.04,1.04.15v-2.57h2.62v8.1c0,1.43-.78,2.33-1.8,2.76.9.66,1.48,1.62,1.48,2.8,0,1.93-1.7,3.86-5.04,3.88-2.66.02-5.06-1.31-5.02-3.88.04-2.66,2.56-3.86,5.04-3.86.62,0,1.24.08,1.8.23ZM198.82,24.77c0,1.2.82,2.29,2.4,2.29s2.42-1,2.42-2.29c0-1.5-1.04-2.28-2.4-2.28-1.56,0-2.42,1.06-2.42,2.28Z"/>
            <path class="cls-4" d="M216.33,14.01c0-.21-.06-.48-.52-.48h-5.31v-1.54h6.45c1.58,0,1.96.77,1.96,1.77v.98c0,2.22-.74,3.99-2.04,5.46-1.22,1.35-2.72,2.35-4.76,3.09-.6.21-.94.04-1.18-.46l-.44-.89c2.16-.89,3.54-1.85,4.5-3.09,1.18-1.5,1.4-3.26,1.34-4.84ZM224.04,16.92c.2-.17.5-.46,1.34-.46h1.58v1.56h-2.92v6.9c0,.64-.32,1.18-1.16,1.18h-1.84c.22-.13.36-.35.36-.77v-14h2.64v5.59Z"/>
            <path class="cls-4" d="M227.73,20.06v-1.56h7.29c1.02,0,2.8.02,4.14-.6v1.62c-.98.46-2.94.54-4.1.54h-1.14v1.39c0,.64-.34,1.18-1.18,1.18h-1.84c.22-.14.36-.35.36-.77v-1.79h-3.52ZM237.71,14.37c0,2.02-1.96,3.32-4.56,3.32s-4.52-1.29-4.52-3.32,1.98-3.32,4.52-3.32,4.56,1.31,4.56,3.32ZM233.25,25.93c0,.37.2.54.56.54h9.19v1.58h-10.25c-1.12,0-2.14-.48-2.14-2.06v-2.51h2.64v2.45ZM233.15,16.11c1.22,0,2-.67,2-1.74s-.78-1.74-1.98-1.74c-1.12,0-1.94.69-1.94,1.7,0,1.06.8,1.77,1.92,1.77ZM236.65,21.03h3.5v-9.91h2.66v11.88c0,.64-.34,1.18-1.18,1.18h-1.84c.22-.13.36-.35.36-.77v-.85h-3.5v-1.52Z"/>
          </g>
        </g>
        <rect class="cls-3" width="244" height="32"/>
      </g>
    </g>
  </g>
</svg>