<?xml version="1.0" encoding="utf-8"?>
<!-- Generator: Adobe Illustrator 25.0.1, SVG Export Plug-In . SVG Version: 6.00 Build 0)  -->
<svg version="1.2" baseProfile="tiny" id="레이어_1"
	 xmlns="http://www.w3.org/2000/svg" xmlns:xlink="http://www.w3.org/1999/xlink" x="0px" y="0px" viewBox="0 0 2048 450.41"
	 overflow="visible" xml:space="preserve">
<g>
	<g>
		<path fill="#FFFFFF" d="M438.2019,229.757c0,89.6906-72.7159,162.4-162.3999,162.4c-89.6927,0-162.4-72.7094-162.4-162.4
			c0-89.6862,72.7072-162.3956,162.4-162.3956C365.486,67.3613,438.2019,140.0707,438.2019,229.757z"/>
		<g>
			<g>
				<g>
					<g>
						<g>
							<g>
								<path fill="#003764" d="M352.0254,218.4376c-25.8314-17.5555-58.9023-10.4068-76.2909,15.9886
									c-14.4636,22.0621-36.3549,24.8072-44.7873,24.8072c-27.6582,0-46.5294-19.4412-52.1385-39.5476
									c0,0-0.2742-1.0181-0.346-1.2482c-2.2049-8.4047-2.7624-12.3963-2.7624-21.3144
									c0-48.0562,49.3446-101.5886,120.3538-101.5886c72.7475,0,114.3819,55.3779,125.1394,86.164
									c-0.2154-0.5787-0.3906-1.0938-0.5657-1.6366C399.989,119.8566,342.9066,76.5835,275.6627,76.5835
									c-84.5482,0-153.1332,68.5492-153.1332,153.1691c0,75.6176,54.5393,140.3382,130.2074,140.3382
									c60.3196,0,100.8745-33.8185,119.4503-80.4493C382.4019,264.1267,375.1878,234.1684,352.0254,218.4376z"/>
							</g>
							<g>
								<path fill="#E4032E" d="M422.1311,184.6721c-8.9731-30.034-50.8756-89.1374-126.0771-89.1374
									c-71.0092,0-120.3538,53.5324-120.3538,101.5886c0,8.9181,0.5575,12.9096,2.7624,21.3144
									c-0.9229-3.681-1.3939-7.3447-1.3939-10.9284c0-50.0625,50.1131-84.7406,101.6348-84.7406
									c69.7637,0,126.3028,56.5413,126.3028,126.2756c0,54.6638-31.466,102.0128-77.1611,124.7401v0.0422
									c58.9279-21.3419,101.0077-77.7905,101.0077-144.0739C428.853,214.0642,426.7498,200.2277,422.1311,184.6721z"/>
							</g>
						</g>
					</g>
				</g>
			</g>
		</g>
	</g>
	<g>
		<path fill="#575757" d="M598.7292,274.1456v16.8822h-99.3532v-16.8822h31.3009v-50.4671h18.8147v50.4671H598.7292z
			 M570.4182,256.2089v-77.7236h-65.4154v-16.8807h84.23v94.6043H570.4182z M629.5021,306.326H610.511V153.1642h18.9911v64.5344
			h19.6942v18.1132h-19.6942V306.326z"/>
		<path fill="#575757" d="M748.723,162.8356v16.3527h-89.3289v-16.3527h34.9924v-12.8378h20.2222v12.8378H748.723z
			 M665.724,254.0999h120.6298v50.8186h-18.9911v-33.9379H665.724V254.0999z M739.9312,214.8851
			c0,4.4572-0.9393,8.6782-2.8134,12.6613c-1.8771,3.9876-4.3959,7.4457-7.5609,10.3758
			c-3.2845,2.9316-7.0344,5.2754-11.2552,7.0329c-4.2194,1.759-8.7919,2.6384-13.7158,2.6384c-4.924,0-9.5262-0.8795-13.804-2.6384
			c-4.2808-1.7575-8.0604-4.1013-11.342-7.0329c-3.165-2.9301-5.6868-6.3882-7.5609-10.3758
			c-1.8771-3.9831-2.8135-8.204-2.8135-12.6613c0-4.4528,0.9363-8.6737,2.8135-12.6598c1.8741-3.9846,4.3959-7.4442,7.5609-10.3758
			c3.2816-2.9286,7.0613-5.2754,11.342-7.0329c4.2778-1.759,8.8801-2.6384,13.804-2.6384c4.9239,0,9.4963,0.8795,13.7158,2.6384
			c4.2209,1.7575,7.9707,4.1043,11.2552,7.0329c3.165,2.9316,5.6838,6.3912,7.5609,10.3758
			C738.9919,206.2114,739.9312,210.4324,739.9312,214.8851z M721.8195,214.7101c0-4.5724-1.7007-8.4987-5.1005-11.7818
			c-3.4012-3.2801-7.4457-4.9239-12.1332-4.9239c-4.6906,0-8.7036,1.6438-12.045,4.9239
			c-3.3414,3.2831-5.0121,7.2094-5.0121,11.7818s1.6707,8.5002,5.0121,11.7818c3.3414,3.2831,7.3544,4.9239,12.045,4.9239
			c4.6876,0,8.732-1.6408,12.1332-4.9239C720.1188,223.2103,721.8195,219.2825,721.8195,214.7101z M786.3538,245.4831h-18.9911
			v-92.3189h18.9911v35.8719h21.9811v18.8162h-21.9811V245.4831z"/>
		<path fill="#575757" d="M899.4213,286.2788h-18.9911V179.7162h-58.7325v-17.0572h77.7236V286.2788z M937.7567,153.1642h18.9911
			V306.326h-18.9911V153.1642z"/>
		<path fill="#575757" d="M1043.6133,240.0312v-11.7818h-60.6664v-15.6497h140.6771v15.6497h-60.843v11.7818h49.5876v38.8618
			h-99.3517v9.3199h101.4622v15.4747H994.2006v-39.7413h99.3532v-8.7919h-99.3532v-15.1232H1043.6133z M1053.2845,171.2759
			l-53.6335,37.8073l-11.2538-13.1893l64.8873-45.7197l64.8875,45.7197l-11.2539,13.1893L1053.2845,171.2759z"/>
		<path fill="#575757" d="M1142.787,173.9129v-16.3527h87.923v16.3527h-37.4558l39.0382,47.6552l-13.3643,10.9023l-31.3009-39.0383
			l-31.1244,41.6753l-13.8923-11.2538l38.8634-49.9406H1142.787z M1264.4729,273.7941c0,5.1602-1.056,9.9959-3.165,14.507
			c-2.1105,4.5126-4.9238,8.4688-8.4418,11.8701c-3.6346,3.3983-7.8855,6.0936-12.748,8.0888
			c-4.8656,1.9923-9.996,2.99-15.3865,2.99c-5.3936,0-10.5508-0.9977-15.4747-2.99c-4.924-1.9953-9.2047-4.6906-12.8363-8.0888
			c-3.5179-3.4013-6.3314-7.3575-8.4403-11.8701c-2.1105-4.5111-3.1665-9.3467-3.1665-14.507c0-5.1572,1.056-10.0228,3.1665-14.5952
			c2.1089-4.5724,4.9224-8.5555,8.4403-11.9568c3.6316-3.3998,7.9124-6.0951,12.8363-8.0889
			c4.924-1.9923,10.0812-2.9899,15.4747-2.9899c5.3905,0,10.5209,0.9977,15.3865,2.9899c4.8625,1.9938,9.1134,4.6891,12.748,8.0889
			c3.5179,3.4013,6.3313,7.3844,8.4418,11.9568C1263.4169,263.7712,1264.4729,268.6368,1264.4729,273.7941z M1245.8331,273.6176
			c0-5.7421-2.1105-10.6959-6.3313-14.8585c-4.2195-4.1596-9.2032-6.2416-14.9468-6.2416c-5.7451,0-10.6989,2.082-14.8585,6.2416
			c-4.1626,4.1626-6.243,9.1164-6.243,14.8585c0,5.7466,2.0804,10.669,6.243,14.7717c4.1597,4.1028,9.1134,6.1549,14.8585,6.1549
			c5.7435,0,10.7273-2.0521,14.9468-6.1549C1243.7227,284.2866,1245.8331,279.3641,1245.8331,273.6176z M1258.4945,234.4043
			v-33.2349h-28.4875v-16.3527h28.4875v-31.6524h18.9911v81.2401H1258.4945z"/>
		<path fill="#575757" d="M1414.2916,183.2327v-23.5621h18.8147v87.5714h-49.5876v30.948h60.843v16.8822h-140.677V278.19h60.6664
			v-30.948h-49.4126v-87.5714h18.8162v23.5621H1414.2916z M1414.2916,230.5363v-30.7729h-80.537v30.7729H1414.2916z"/>
		<path fill="#575757" d="M1475.3081,216.8206v-62.0739h117.9929v15.4747h-99.0017v8.0889h98.2987v14.9467h-98.2987v8.4404h99.5297
			v15.1232h-49.9406v9.8463h60.8429v15.6512h-140.677v-15.6512h60.6664v-9.8463H1475.3081z M1571.8479,279.421
			c0,4.5724-0.9393,8.8801-2.8135,12.9245c-1.8771,4.0444-4.514,7.6491-7.9138,10.8156c-3.5165,3.0468-7.5339,5.4788-12.045,7.2976
			c-4.5142,1.8158-9.4081,2.7252-14.6835,2.7252c-5.1603,0-10.0228-0.9094-14.5953-2.7252
			c-4.5724-1.8188-8.5585-4.2509-11.9568-7.2976c-3.5179-3.1664-6.2162-6.7711-8.0889-10.8156
			c-1.8771-4.0444-2.8134-8.3521-2.8134-12.9245c0-4.6876,0.9363-9.0551,2.8134-13.101c1.8727-4.0444,4.5709-7.6491,8.0889-10.814
			c3.3983-3.0468,7.3844-5.4788,11.9568-7.2976c4.5725-1.8158,9.4351-2.7252,14.5953-2.7252c5.2754,0,10.1693,0.9094,14.6835,2.7252
			c4.5111,1.8188,8.5286,4.2508,12.045,7.2976c3.3998,3.1649,6.0367,6.7696,7.9138,10.814
			C1570.9086,270.3659,1571.8479,274.7334,1571.8479,279.421z M1553.0317,279.246c0-5.0391-1.8457-9.3482-5.5387-12.926
			c-3.6929-3.5733-8.0619-5.3622-13.101-5.3622c-5.0421,0-9.4081,1.7889-13.1011,5.3622c-3.6914,3.5778-5.5387,7.8869-5.5387,12.926
			c0,5.0406,1.8473,9.3498,5.5387,12.9245c3.693,3.5748,8.059,5.3622,13.1011,5.3622c5.0391,0,9.4081-1.7874,13.101-5.3622
			C1551.186,288.5957,1553.0317,284.2866,1553.0317,279.246z"/>
		<path fill="#575757" d="M1670.3186,152.2847l48.3582,78.0751l-15.4747,9.6713l-32.8834-54.863l-32.5304,56.094l-15.8262-9.6713
			L1670.3186,152.2847z M1634.4468,303.3361v-51.1716h18.9912v34.2909h106.5625v16.8807H1634.4468z M1739.6034,251.2865v-98.1223
			h18.9912v98.1223H1739.6034z"/>
		<path fill="#575757" d="M1784.7936,250.0555h140.677v16.8807h-60.8429v39.3898H1845.46v-39.3898h-60.6664V250.0555z
			 M1814.8635,175.1438h80.5371v-19.3427h18.8147v73.6792h-118.168v-73.6792h18.8162V175.1438z M1895.4006,191.6745h-80.5371
			v21.1016h80.5371V191.6745z"/>
	</g>
</g>
</svg>
