<svg width="141" height="42" viewBox="0 0 141 42" fill="none" xmlns="http://www.w3.org/2000/svg">
<g clip-path="url(#clip0_253_1990)">
<path d="M138.829 21.8382V20.1307C138.829 19.3537 138.395 18.9805 137.689 18.9805H136.654V24.7368C136.386 24.834 136.068 24.9158 135.699 24.972C135.326 25.0333 134.922 25.064 134.483 25.064H130.54V20.6624H134.983V19.4252H128.364V24.8902C128.364 25.3247 128.501 25.6724 128.768 25.9331C129.036 26.1938 129.399 26.3267 129.864 26.3267H134.357C134.811 26.3267 135.23 26.2705 135.629 26.1682C136.028 26.066 136.371 25.9382 136.659 25.7848V28.9646H138.835V23.0958H141.005V21.8382H138.835H138.829Z" fill="#004B9D"/>
<path d="M111.427 24.4912C111.523 24.0516 111.573 23.6477 111.573 23.2745V20.2174C111.573 19.4403 111.139 19.0723 110.432 19.0723H101.911V20.3094H109.397V23.341C109.397 23.709 109.382 24.0822 109.347 24.4605C109.316 24.8337 109.251 25.1609 109.15 25.4472H100.855V26.7048H105.863V32.6554H108.039V26.7048H113.032V25.4472H111.083C111.215 25.2529 111.326 24.9309 111.422 24.4912H111.427Z" fill="#004B9D"/>
<path d="M85.0597 23.2438C85.1606 22.8093 85.2162 22.4105 85.2162 22.0374V20.2174C85.2162 19.4403 84.782 19.0723 84.0753 19.0723H75.9373V20.3094H83.0403V22.0885C83.0403 22.4668 83.0252 22.84 82.9949 23.2132C82.9596 23.5812 82.8939 23.9084 82.7829 24.1896H74.4531V25.4319H79.4813V27.5994H75.8869V28.8366H83.005V32.6554H85.1808V28.7497C85.1808 27.9726 84.7467 27.5994 84.0399 27.5994H81.6521V25.4319H86.7761V24.1896H84.6811C84.8275 23.9953 84.9587 23.6835 85.0546 23.2438H85.0597Z" fill="#004B9D"/>
<path d="M93.1471 25.8513C93.6317 25.6366 94.0406 25.3401 94.389 24.972H97.0797V28.9646H99.2556V20.1307C99.2556 19.3537 98.8214 18.9805 98.1147 18.9805H97.0848V20.3505H94.4445C94.1012 19.9722 93.6822 19.6655 93.1875 19.4406C92.6927 19.2105 92.1627 19.098 91.5922 19.098C90.5825 19.098 89.7092 19.4457 88.9822 20.1307C88.2502 20.826 87.8867 21.6542 87.8867 22.6357C87.8867 23.6173 88.2502 24.4454 88.9822 25.1407C89.7092 25.8308 90.5825 26.1734 91.5922 26.1734C92.1526 26.1734 92.6675 26.066 93.1521 25.8462L93.1471 25.8513ZM95.2724 22.104C95.2371 21.9302 95.1967 21.7564 95.1462 21.5826H97.0747V23.7502H95.126C95.1917 23.5661 95.2371 23.3821 95.2724 23.1981C95.3027 23.014 95.3229 22.83 95.3229 22.6459C95.3229 22.4619 95.3027 22.283 95.2724 22.1091V22.104ZM90.5018 24.2512C90.2039 23.8064 90.0525 23.2696 90.0525 22.6408C90.0525 22.012 90.2039 21.4701 90.5018 21.0254C90.8047 20.5806 91.1631 20.3557 91.5821 20.3557C92.0011 20.3557 92.3797 20.5806 92.6877 21.0254C92.9906 21.4701 93.1471 22.0069 93.1471 22.6408C93.1471 23.2747 92.9956 23.8115 92.6877 24.2512C92.3797 24.6959 92.0163 24.9209 91.5821 24.9209C91.1479 24.9209 90.8047 24.6959 90.5018 24.2512Z" fill="#004B9D"/>
<path d="M92.5311 31.2352V28.858C92.5311 28.081 92.097 27.7129 91.3902 27.7129H90.3604V31.0256C90.3604 31.4806 90.5017 31.8385 90.7895 32.1043C91.0722 32.365 91.4306 32.4928 91.8597 32.4928H99.7351V31.2403H92.5362L92.5311 31.2352Z" fill="#004B9D"/>
<path d="M132.185 31.2346V29.0057C132.185 28.2287 131.751 27.8555 131.044 27.8555H130.015V31.0199C130.015 31.4749 130.156 31.8328 130.439 32.0986C130.721 32.3593 131.08 32.4871 131.509 32.4871H139.187V31.2346H132.185Z" fill="#004B9D"/>
<path d="M67.3096 26.189C67.9709 25.5857 68.299 24.8598 68.299 24.0112C68.299 23.546 68.188 23.1063 67.9658 22.6973C67.7437 22.2883 67.4459 21.9509 67.0723 21.6749H68.7635V20.4377H66.0071V19.9725C66.0071 19.1955 65.5729 18.8223 64.8662 18.8223H63.8363V20.4377H61.085V21.6749H62.7913C62.4228 21.9509 62.13 22.2883 61.9078 22.6973C61.6807 23.1063 61.5646 23.5408 61.5646 24.0112C61.5646 24.8598 61.8977 25.5857 62.5641 26.189C63.2305 26.7922 64.018 27.0938 64.9267 27.0938C65.8354 27.0938 66.6432 26.7922 67.3045 26.189H67.3096ZM63.6293 24.0112C63.6293 23.4897 63.7656 23.0398 64.0332 22.6667C64.3007 22.2935 64.6037 22.1043 64.9368 22.1043C65.27 22.1043 65.5881 22.2935 65.8455 22.6667C66.1131 23.0398 66.2444 23.4897 66.2444 24.0112C66.2444 24.5326 66.1131 24.9825 65.8455 25.3659C65.583 25.7442 65.2801 25.9385 64.9368 25.9385C64.5936 25.9385 64.3007 25.7442 64.0332 25.3659C63.7656 24.9825 63.6293 24.5326 63.6293 24.0112Z" fill="#004B9D"/>
<path d="M125.108 18.9863H124.205V22.6569H123.094V20.1366C123.094 19.3595 122.655 18.9863 121.948 18.9863H121.044V26.9307C120.323 26.6495 119.732 26.0668 119.257 25.1875C118.783 24.3081 118.546 23.2755 118.546 22.0894V20.6682H120.302V19.4311H114.502V20.6682H116.4V22.0894C116.4 23.3624 116.137 24.4462 115.617 25.351C115.103 26.2559 114.431 26.8131 113.613 27.033L114.613 27.8816C115.234 27.7998 115.84 27.4726 116.43 26.9205C117.021 26.3684 117.369 25.806 117.475 25.2437C117.591 25.8111 117.945 26.3684 118.53 26.9205C119.111 27.4777 119.712 27.7998 120.323 27.8816L121.029 27.2783V32.6615H123.074V23.9043H124.184V32.6615H126.229V20.1417C126.229 19.3646 125.795 18.9914 125.088 18.9914L125.108 18.9863Z" fill="#004B9D"/>
<path d="M72.085 22.0892V20.1363C72.085 19.3592 71.6509 18.986 70.9441 18.986V18.9707H69.9092V28.9498H72.08V23.3365H74.2558V22.084H72.08L72.085 22.0892Z" fill="#004B9D"/>
<path d="M65.6942 31.2341V29.2506C65.6942 28.4735 65.2601 28.1055 64.5533 28.1055H63.5234V31.0092C63.5234 31.4642 63.6648 31.8221 63.9475 32.0828C64.2353 32.3435 64.5937 32.4764 65.0177 32.4764H72.5549V31.2393H65.6942V31.2341Z" fill="#004B9D"/>
<path d="M32.673 17.9316C31.7492 17.9316 30.8506 18.4275 30.8506 19.8487V32.6497H33.5969C34.4702 32.6497 34.8135 32.2561 34.8135 31.4688V27.3739H41.1088C41.9822 27.3739 42.3255 26.9803 42.3255 26.1879V24.1072H34.8135V21.1626H41.7096C42.5779 21.1626 42.9262 20.7689 42.9262 19.9816V17.9368H32.673V17.9316Z" fill="#004B9D"/>
<path d="M13.5851 30.7326V17.9316H10.864C9.99066 17.9316 9.64737 18.3202 9.64737 19.1126V26.1112L3.58432 17.9316H1.8174C0.893555 17.9316 0 18.4275 0 19.8487V32.6497H2.72105C3.59441 32.6497 3.9377 32.2612 3.9377 31.4688V24.4651L10.1371 32.6497H11.7677C12.6915 32.6497 13.5851 32.1538 13.5851 30.7326Z" fill="#004B9D"/>
<path d="M39.5692 15.1416C39.65 13.5824 39.9276 7.43751 39.9276 7.43751C39.9428 7.16145 39.9024 7.0132 39.7004 6.86494C29.9269 -0.471095 20.7641 0.147484 16.8971 3.99699C13.853 7.02853 13.1361 12.2021 15.2867 16.8184C15.5139 17.3348 15.7612 17.253 15.6401 16.7162C14.9283 13.5262 15.3271 10.3719 17.4928 8.15322C21.587 3.9612 31.3555 7.45285 39.342 15.2132C39.4733 15.3206 39.554 15.2643 39.5641 15.1416H39.5692Z" fill="url(#paint0_linear_253_1990)"/>
<path d="M47.464 9.95708C45.5305 7.52366 41.7594 3.52591 37.4532 0.576158C37.2411 0.422791 37.1149 0.514811 37.12 0.729525L36.7313 8.84262C36.7212 9.06244 36.7767 9.14935 36.918 9.25671C38.4931 10.4836 40.0177 11.7975 41.4969 13.372C47.8527 20.1253 53.2646 31.3159 48.2011 36.4486C44.2735 40.4259 35.5802 39.3268 27.2151 33.3557C26.7557 33.0285 26.5992 33.2688 26.9274 33.6113C35.6762 41.7244 45.4043 43.483 50.9423 39.3421C57.7778 34.235 56.0512 20.7848 47.464 9.96219V9.95708Z" fill="url(#paint1_linear_253_1990)"/>
<path d="M27.4831 32.6499H30.9867C28.3969 29.9506 26.9783 28.3812 25.9737 27.0878C28.0889 26.0551 29.0229 24.3323 29.0229 22.6964C29.0229 19.992 27.3519 18.0852 24.237 17.942C24.0856 17.9318 18.4466 17.942 15.8164 17.942V32.655H18.5324C19.4058 32.655 19.7491 32.2665 19.7491 31.4741V25.2985C21.5412 27.7728 23.2021 29.9097 25.0599 31.7348C25.6455 32.3278 26.7461 32.6601 27.4882 32.6601L27.4831 32.6499ZM22.874 24.4908H19.744V20.9327C20.4255 20.9327 22.5256 20.9327 22.9598 20.9327C24.0502 20.9327 24.8883 21.6484 24.8883 22.7066C24.8883 23.9029 23.9392 24.4908 22.874 24.4908Z" fill="#004B9D"/>
</g>
<defs>
<linearGradient id="paint0_linear_253_1990" x1="33.9297" y1="23.3798" x2="16.0302" y2="5.53667" gradientUnits="userSpaceOnUse">
<stop stop-color="#00A3E9"/>
<stop offset="1" stop-color="#004EA2"/>
</linearGradient>
<linearGradient id="paint1_linear_253_1990" x1="49.6075" y1="6.2773" x2="35.7705" y2="43.8139" gradientUnits="userSpaceOnUse">
<stop offset="0.13" stop-color="#B0CF00"/>
<stop offset="0.21" stop-color="#A7CB03"/>
<stop offset="0.34" stop-color="#8EC30C"/>
<stop offset="0.5" stop-color="#66B61C"/>
<stop offset="0.69" stop-color="#30A431"/>
<stop offset="0.84" stop-color="#009444"/>
</linearGradient>
<clipPath id="clip0_253_1990">
<rect width="141" height="41" fill="white" transform="translate(0 0.5)"/>
</clipPath>
</defs>
</svg>
